PathFileType	3	(X/Y/Z)	C:\Users\dbak576\Desktop\AnkleMomentFeedback\AB28\AB28_05Apr - Copy\AB28_05Apr_static_01.trc
DataRate	CameraRate	NumFrames	NumMarkers	Units	OrigDataRate	OrigDataStartFrame	OrigNumFrames
200.0	200.0	4	42	mm	200.0	106	141	
Frame#	Time	LASI			RASI			LPSI			RPSI			LTH1			LTH2			LTH3			LTH4			LMFC			LLFC			LTB1			LTB2			LTB3			LTB4			LMMAL			LLMAL			LCAL			LToe			LMT1			LMT5			RTH1			RTH2			RTH3			RTH4			RMFC			RLFC			RTB1			RTB2			RTB3			RTB4			RMMAL			RLMAL			RCAL			RToe			RMT1			RMT5			C7			T10			LACR1			RACR1			CLAV			RBack			
		X1	Y1	Z1	X2	Y2	Z2	X3	Y3	Z3	X4	Y4	Z4	X5	Y5	Z5	X6	Y6	Z6	X7	Y7	Z7	X8	Y8	Z8	X9	Y9	Z9	X10	Y10	Z10	X11	Y11	Z11	X12	Y12	Z12	X13	Y13	Z13	X14	Y14	Z14	X15	Y15	Z15	X16	Y16	Z16	X17	Y17	Z17	X18	Y18	Z18	X19	Y19	Z19	X20	Y20	Z20	X21	Y21	Z21	X22	Y22	Z22	X23	Y23	Z23	X24	Y24	Z24	X25	Y25	Z25	X26	Y26	Z26	X27	Y27	Z27	X28	Y28	Z28	X29	Y29	Z29	X30	Y30	Z30	X31	Y31	Z31	X32	Y32	Z32	X33	Y33	Z33	X34	Y34	Z34	X35	Y35	Z35	X36	Y36	Z36	X37	Y37	Z37	X38	Y38	Z38	X39	Y39	Z39	X40	Y40	Z40	X41	Y41	Z41	X42	Y42	Z42	
106	0.52	342.55386	991.64844	-821.9231	590.33771	1006.0289	-828.62152	425.35464	1033.9873	-648.48199	516.92688	1035.6345	-647.33643	283.59561	799.23749	-793.16113	328.36707	797.8963	-840.01776	303.879	756.96252	-820.20215	292.99554	707.97711	-802.22229	406.4408	495.82431	-725.93433	290.60986	523.6283	-716.8634	265.5014	398.46234	-663.42798	265.3992	359.20041	-693.98065	276.58722	309.3248	-712.89282	273.39767	400.85291	-724.92987	376.92404	108.60365	-717.79492	292.39999	91.289543	-684.81519	348.4006	47.429016	-620.63263	329.12524	51.635677	-896.4314	362.89331	38.084667	-835.73199	251.82474	38.493355	-801.7135	664.08948	849.4718	-790.08698	677.79382	806.82861	-758.26978	676.81757	775.57538	-722.29889	675.77411	759.33862	-781.11072	545.5451	505.27072	-724.60712	665.38922	518.58899	-710.2818	664.86627	260.96878	-722.80304	675.52502	263.00534	-656.3877	675.50439	224.11148	-687.25543	666.31372	172.98154	-708.09082	586.27338	108.73125	-710.3324	667.76538	97.427811	-671.97974	602.00201	50.62088	-616.37762	663.38867	54.162319	-887.72455	619.36017	42.484734	-828.71191	720.95563	44.937717	-779.09503	458.06213	1506.8573	-688.42401	467.68396	1238.0234	-617.78455	289.03989	1483.3453	-733.98462	634.64722	1461.6592	-747.70538	462.30609	1427.9084	-827.36841	581.13733	1380.5935	-621.73291
107	0.525	342.52048	991.65198	-821.89581	590.19214	1005.9603	-828.513	425.3826	1033.9633	-648.54132	516.94446	1035.5964	-647.33191	283.54285	799.19781	-793.12665	328.33652	797.88092	-840.0603	303.88242	756.966	-820.20111	292.96799	707.966	-802.20197	406.4476	495.82849	-725.91791	290.55597	523.65802	-716.9563	265.5242	398.45657	-663.44366	265.3988	359.19644	-693.97687	276.60464	309.2811	-712.8454	273.37134	400.86053	-724.9317	376.92233	108.62406	-717.7832	292.39346	91.291664	-684.80396	348.40271	47.425529	-620.63104	329.12787	51.637909	-896.4353	362.89917	38.069988	-835.7326	251.80888	38.459339	-801.72528	664.04993	849.42047	-790.08331	677.77899	806.81744	-758.2934	676.84198	775.55286	-722.37793	675.78308	759.33575	-781.12244	545.51544	505.23822	-724.50543	665.38544	518.58563	-710.31	664.85809	260.95105	-722.80573	675.50983	262.96289	-656.39532	675.52661	224.11597	-687.29443	666.33124	172.95805	-708.08362	586.29047	108.72069	-710.37177	667.78619	97.419983	-671.95734	601.93884	50.644009	-616.33173	663.30688	54.166569	-887.70538	619.46429	42.518681	-828.75214	720.95392	44.950996	-779.1087	458.05606	1506.8416	-688.44543	467.7092	1237.9919	-617.79181	289.02557	1483.3234	-734.02325	634.63208	1461.663	-747.74011	462.2998	1427.8929	-827.39178	581.14001	1380.5944	-621.76837
108	0.53	342.50189	991.58093	-821.81573	590.18878	1005.9769	-828.50812	425.35709	1033.9775	-648.6062	516.927	1035.6281	-647.36157	283.55432	799.18146	-793.1463	328.33755	797.84039	-840.13757	303.85522	756.93982	-820.16278	292.94571	707.94177	-802.18555	406.40332	495.79068	-725.96692	290.573	523.60925	-716.97803	265.50916	398.42166	-663.44556	265.40118	359.17352	-693.95575	276.5766	309.2663	-712.8385	273.33694	400.76425	-724.83582	376.91663	108.61466	-717.79694	292.36765	91.272469	-684.841	348.41241	47.405624	-620.65771	329.12589	51.619766	-896.40729	362.90091	38.067528	-835.73236	251.80676	38.4627	-801.72876	664.07715	849.44708	-790.09802	677.77087	806.81403	-758.34229	676.84003	775.55499	-722.43372	675.76721	759.32922	-781.15039	545.50848	505.27649	-724.5166	665.38727	518.58765	-710.31305	664.84845	260.9566	-722.7923	675.5141	262.97684	-656.36151	675.54279	224.16069	-687.28467	666.30243	172.96861	-708.07611	586.25482	108.72939	-710.25311	667.76929	97.400528	-671.95032	601.97186	50.620102	-616.33673	663.33649	54.118088	-887.69196	619.46307	42.516174	-828.75	720.94348	44.917179	-779.11829	458.09384	1506.8409	-688.5293	467.69574	1237.9661	-617.79321	289.00021	1483.3228	-734.03876	634.63733	1461.6694	-747.75806	462.2449	1427.8634	-827.44415	581.16541	1380.5844	-621.84021
109	0.535	342.48987	991.60162	-821.88525	590.18054	1005.9509	-828.59888	425.35803	1033.9757	-648.6037	516.92902	1035.6241	-647.35968	283.51636	799.20587	-793.08868	328.35382	797.89081	-840.08179	303.81937	756.91937	-820.13123	292.86737	707.88702	-802.13458	406.42761	495.8027	-725.96484	290.69104	523.56769	-716.95569	265.51404	398.42322	-663.44305	265.39847	359.2012	-694.03461	276.6145	309.31104	-712.83746	273.35953	400.77234	-724.84729	376.94434	108.58473	-717.81012	292.38632	91.285202	-684.84961	348.38083	47.392838	-620.68207	329.12817	51.606094	-896.41541	362.92459	38.046898	-835.71545	251.81833	38.478039	-801.73865	664.06067	849.44202	-790.14093	677.78857	806.81689	-758.31671	676.83636	775.5545	-722.47778	675.68262	759.30078	-781.1745	545.50403	505.20712	-724.50665	665.36383	518.58203	-710.30731	664.83691	260.98425	-722.84619	675.58252	263.02643	-656.41016	675.52692	224.12167	-687.32056	666.30499	172.97092	-708.09979	586.25409	108.72663	-710.28192	667.75848	97.403954	-671.95392	601.99847	50.619808	-616.37006	663.31726	54.112305	-887.70044	619.43811	42.516983	-828.75385	720.9798	44.936577	-779.14716	458.09735	1506.8383	-688.55823	467.71811	1237.9635	-617.8576	289.0314	1483.3492	-734.1051	634.64478	1461.645	-747.8717	462.25824	1427.8568	-827.48322	581.14276	1380.5842	-621.88348
